<svg width="96" height="96" viewBox="0 0 96 96" fill="none" xmlns="http://www.w3.org/2000/svg">
<path d="M16 12C11.58 12 8 15.58 8 20V72C8 78.628 13.372 84 20 84H76C82.5799 84 88 78.5799 88 72V32C88.0073 31.4648 87.9072 30.9337 87.7055 30.4379C87.5039 29.9421 87.2048 29.4919 86.826 29.1138C86.4471 28.7357 85.9963 28.4375 85.5002 28.2368C85.004 28.0361 84.4726 27.937 83.9375 27.9453C82.878 27.9619 81.8684 28.3981 81.1301 29.1583C80.3919 29.9185 79.9855 30.9405 80 32V72C80 74.2601 78.2601 76 76 76C73.792 76 72 74.204 72 72V20C72 15.58 68.42 12 64 12H16ZM28 24H52C54.208 24 56 25.792 56 28V32C56 34.208 54.208 36 52 36H28C25.792 36 24 34.208 24 32V28C24 25.792 25.792 24 28 24ZM28 48H52C54.208 48 56 49.792 56 52C56 54.208 54.208 56 52 56H28C25.792 56 24 54.208 24 52C24 49.792 25.792 48 28 48ZM28 64H52C54.208 64 56 65.792 56 68C56 70.208 54.208 72 52 72H28C25.792 72 24 70.208 24 68C24 65.792 25.792 64 28 64Z" fill="white"/>
</svg>
