<svg width="96" height="96" viewBox="0 0 96 96" fill="none" xmlns="http://www.w3.org/2000/svg">
<path d="M41.961 8C40.045 8 38.4071 9.35438 38.0391 11.2344L36.7031 18.0938C33.4201 19.3352 30.3844 21.0696 27.7188 23.2578L21.1406 20.9922C19.3286 20.3682 17.335 21.1174 16.375 22.7734L10.3438 33.2266C9.38777 34.8866 9.73571 36.994 11.1797 38.25L16.4531 42.8359C16.1789 44.5213 16 46.2371 16 48C16 49.7629 16.1789 51.4787 16.4531 53.1641L11.1797 57.75C9.73571 59.006 9.38777 61.1134 10.3438 62.7734L16.375 73.2266C17.331 74.8866 19.3286 75.6356 21.1406 75.0156L27.7188 72.75C30.3836 74.9368 33.4216 76.6654 36.7031 77.9062L38.0391 84.7656C38.4071 86.6456 40.045 88 41.961 88H54.0391C55.9551 88 57.593 86.6456 57.961 84.7656L59.2969 77.9062C62.5799 76.6648 65.6156 74.9304 68.2813 72.7422L74.8594 75.0078C76.6714 75.6318 78.665 74.8866 79.625 73.2266L85.6563 62.7656C86.6123 61.1056 86.2643 59.006 84.8203 57.75L79.5469 53.1641C79.8211 51.4787 80 49.7629 80 48C80 46.2371 79.8211 44.5213 79.5469 42.8359L84.8203 38.25C86.2643 36.994 86.6123 34.8866 85.6563 33.2266L79.625 22.7734C78.669 21.1134 76.6714 20.3644 74.8594 20.9844L68.2813 23.25C65.6165 21.0632 62.5784 19.3346 59.2969 18.0938L57.961 11.2344C57.593 9.35437 55.9551 8 54.0391 8H41.961ZM48 32C56.836 32 64 39.164 64 48C64 56.836 56.836 64 48 64C39.164 64 32 56.836 32 48C32 39.164 39.164 32 48 32Z" fill="white"/>
</svg>
